<svg xmlns="http://www.w3.org/2000/svg" viewBox="0 0 900 1400" role="img" aria-labelledby="title desc">
  <title id="title">N&amp;L Store login fashion photo placeholder</title>
  <desc id="desc">Replace this local asset with a premium real fashion photo for the customer login banner.</desc>
  <defs>
    <linearGradient id="bg" x1="0" y1="0" x2="1" y2="1">
      <stop offset="0" stop-color="#17233c"/>
      <stop offset=".52" stop-color="#1f2f48"/>
      <stop offset="1" stop-color="#0b1020"/>
    </linearGradient>
    <linearGradient id="gold" x1="0" y1="0" x2="1" y2="1">
      <stop offset="0" stop-color="#f3cf7a"/>
      <stop offset="1" stop-color="#b97822"/>
    </linearGradient>
  </defs>
  <rect width="900" height="1400" fill="url(#bg)"/>
  <path d="M190 196c132-86 268-82 408-20 82 36 148 88 204 154v890H98V302c24-42 55-77 92-106Z" fill="#253955" opacity=".7"/>
  <path d="M352 292c38-46 116-46 154 0l38 46 74 30-42 398H282l-42-398 74-30 38-46Z" fill="#0f172a" opacity=".78"/>
  <path d="M352 292l76 114 78-114 38 46-114 172-116-172 38-46Z" fill="url(#gold)" opacity=".9"/>
  <path d="M246 374l-92 216 112 50 38-246-58-20Zm360 0 92 216-112 50-38-246 58-20Z" fill="#18263b" opacity=".86"/>
  <rect x="116" y="1074" width="668" height="1" fill="#f0bd59" opacity=".38"/>
  <text x="116" y="1136" fill="#fff" font-family="Arial, Helvetica, sans-serif" font-size="34" font-weight="700" letter-spacing="4">N&amp;L STORE</text>
  <text x="116" y="1192" fill="#f0bd59" font-family="Arial, Helvetica, sans-serif" font-size="22" font-weight="600">PLACEHOLDER ASSET</text>
  <text x="116" y="1238" fill="#ffffff" opacity=".76" font-family="Arial, Helvetica, sans-serif" font-size="24">Replace this file with a premium</text>
  <text x="116" y="1278" fill="#ffffff" opacity=".76" font-family="Arial, Helvetica, sans-serif" font-size="24">real fashion photo before release.</text>
</svg>
